# Dodecahedron Regular
# A Platonic solid with 12 pentagonal faces, 20 vertices, and 30 edges.
# The coordinates use the golden ratio (phi ≈ 1.618034).

# Object name
o Dodecahedron

# Vertices (20 total)
# The vertices are generated using combinations of (0, +/-1, +/-phi)
v  1.000000  1.000000  1.000000
v  1.000000  1.000000 -1.000000
v  1.000000 -1.000000  1.000000
v  1.000000 -1.000000 -1.000000
v -1.000000  1.000000  1.000000
v -1.000000  1.000000 -1.000000
v -1.000000 -1.000000  1.000000
v -1.000000 -1.000000 -1.000000
v  0.000000  1.618034  0.618034
v  0.000000  1.618034 -0.618034
v  0.000000 -1.618034  0.618034
v  0.000000 -1.618034 -0.618034
v  0.618034  0.000000  1.618034
v  0.618034  0.000000 -1.618034
v -0.618034  0.000000  1.618034
v -0.618034  0.000000 -1.618034
v  1.618034  0.618034  0.000000
v  1.618034 -0.618034  0.000000
v -1.618034  0.618034  0.000000
v -1.618034 -0.618034  0.000000

# Faces (12 pentagonal faces)
# Each line defines a face connecting 5 vertices in counter-clockwise order.
f 1  9  5 15 13
f 1 13  3 18 17
f 1 17  2 10  9
f 2 17 18  4 14
f 2 14 16  6 10
f 3 13 15  7 11
f 3 11 12  4 18
f 4 12  8 16 14
f 5  9 10  6 19
f 5 19 20  7 15
f 6 16  8 20 19
f 7 20  8 12 11
